<?xml version="1.0" encoding="utf-8"?>
<svg version="1.1" xmlns:xlink="http://www.w3.org/1999/xlink" width="12px" height="12px" viewBox="188 262  12 12" xmlns="http://www.w3.org/2000/svg">
  <path d="M 194 262  C 197.36 262  200 264.64  200 268  C 200 271.36  197.36 274  194 274  C 190.64 274  188 271.36  188 268  C 188 264.64  190.64 262  194 262  Z " fill-rule="nonzero" fill="#f0f0f0" stroke="none" />
  <path d="M 194 262.5  C 197.08 262.5  199.5 264.92  199.5 268  C 199.5 271.08  197.08 273.5  194 273.5  C 190.92 273.5  188.5 271.08  188.5 268  C 188.5 264.92  190.92 262.5  194 262.5  Z " stroke-width="1" stroke="#797979" fill="none" />
  <path d="M 194 271  C 192.32 271  191 269.68  191 268  C 191 266.32  192.32 265  194 265  C 195.68 265  197 266.32  197 268  C 197 269.68  195.68 271  194 271  " fill-rule="nonzero" fill="#797979" stroke="none" />
</svg>