<?xml version="1.0" encoding="utf-8"?>
<svg version="1.1" xmlns:xlink="http://www.w3.org/1999/xlink" width="12px" height="12px" viewBox="248 262  12 12" xmlns="http://www.w3.org/2000/svg">
  <path d="M 254 262  C 257.36 262  260 264.64  260 268  C 260 271.36  257.36 274  254 274  C 250.64 274  248 271.36  248 268  C 248 264.64  250.64 262  254 262  Z " fill-rule="nonzero" fill="#f0f0f0" stroke="none" />
  <path d="M 254 262.5  C 257.08 262.5  259.5 264.92  259.5 268  C 259.5 271.08  257.08 273.5  254 273.5  C 250.92 273.5  248.5 271.08  248.5 268  C 248.5 264.92  250.92 262.5  254 262.5  Z " stroke-width="1" stroke="#797979" fill="none" />
  <path d="M 254 271  C 252.32 271  251 269.68  251 268  C 251 266.32  252.32 265  254 265  C 255.68 265  257 266.32  257 268  C 257 269.68  255.68 271  254 271  " fill-rule="nonzero" fill="#797979" stroke="none" />
</svg>