<?xml version="1.0" encoding="utf-8"?>
<svg version="1.1" xmlns:xlink="http://www.w3.org/1999/xlink" width="12px" height="12px" viewBox="248 302  12 12" xmlns="http://www.w3.org/2000/svg">
  <path d="M 254 302  C 257.36 302  260 304.64  260 308  C 260 311.36  257.36 314  254 314  C 250.64 314  248 311.36  248 308  C 248 304.64  250.64 302  254 302  Z " fill-rule="nonzero" fill="#f0f0f0" stroke="none" />
  <path d="M 254 302.5  C 257.08 302.5  259.5 304.92  259.5 308  C 259.5 311.08  257.08 313.5  254 313.5  C 250.92 313.5  248.5 311.08  248.5 308  C 248.5 304.92  250.92 302.5  254 302.5  Z " stroke-width="1" stroke="#797979" fill="none" />
  <path d="M 254 311  C 252.32 311  251 309.68  251 308  C 251 306.32  252.32 305  254 305  C 255.68 305  257 306.32  257 308  C 257 309.68  255.68 311  254 311  " fill-rule="nonzero" fill="#797979" stroke="none" />
</svg>