<?xml version="1.0" encoding="utf-8"?>
<svg version="1.1" xmlns:xlink="http://www.w3.org/1999/xlink" width="12px" height="12px" viewBox="188 342  12 12" xmlns="http://www.w3.org/2000/svg">
  <path d="M 194 342  C 197.36 342  200 344.64  200 348  C 200 351.36  197.36 354  194 354  C 190.64 354  188 351.36  188 348  C 188 344.64  190.64 342  194 342  Z " fill-rule="nonzero" fill="#ffffff" stroke="none" />
  <path d="M 194 342.5  C 197.08 342.5  199.5 344.92  199.5 348  C 199.5 351.08  197.08 353.5  194 353.5  C 190.92 353.5  188.5 351.08  188.5 348  C 188.5 344.92  190.92 342.5  194 342.5  Z " stroke-width="1" stroke="#797979" fill="none" />
  <path d="M 194 351  C 192.32 351  191 349.68  191 348  C 191 346.32  192.32 345  194 345  C 195.68 345  197 346.32  197 348  C 197 349.68  195.68 351  194 351  " fill-rule="nonzero" fill="#797979" stroke="none" />
</svg>