<?xml version="1.0" encoding="utf-8"?>
<svg version="1.1" xmlns:xlink="http://www.w3.org/1999/xlink" width="12px" height="12px" viewBox="199 312  12 12" xmlns="http://www.w3.org/2000/svg">
  <path d="M 205 312  C 208.36 312  211 314.64  211 318  C 211 321.36  208.36 324  205 324  C 201.64 324  199 321.36  199 318  C 199 314.64  201.64 312  205 312  Z " fill-rule="nonzero" fill="#f0f0f0" stroke="none" />
  <path d="M 205 312.5  C 208.08 312.5  210.5 314.92  210.5 318  C 210.5 321.08  208.08 323.5  205 323.5  C 201.92 323.5  199.5 321.08  199.5 318  C 199.5 314.92  201.92 312.5  205 312.5  Z " stroke-width="1" stroke="#797979" fill="none" />
  <path d="M 205 321  C 203.32 321  202 319.68  202 318  C 202 316.32  203.32 315  205 315  C 206.68 315  208 316.32  208 318  C 208 319.68  206.68 321  205 321  " fill-rule="nonzero" fill="#797979" stroke="none" />
</svg>