<?xml version="1.0" encoding="utf-8"?>
<svg version="1.1" xmlns:xlink="http://www.w3.org/1999/xlink" width="358px" height="189px" xmlns="http://www.w3.org/2000/svg">
  <g transform="matrix(1 0 0 1 -31 -31 )">
    <path d="M 31 31  L 389 31  L 389 220  L 31 220  L 31 31  " fill-rule="nonzero" fill="#cccccc" stroke="none" />
    <path d="M 44 44  L 376 44  L 376 207  L 44 207  L 44 44  " fill-rule="nonzero" fill="#ffffff" stroke="none" />
    <path d="M 231.335 87.7  C 223.397 87.7  217.16 81.463  217.16 73.525  C 217.16 65.587  223.397 59.35  231.335 59.35  C 239.273 59.35  245.51 65.587  245.51 73.525  C 245.51 81.463  239.273 87.7  231.335 87.7  " fill-rule="nonzero" fill="#cccccc" stroke="none" />
    <path d="M 49 203  L 49 118.3  L 129.75 79.8  L 242.8 154.218994413408  L 307.4 102.9  L 372 154.218994413408  L 372 203  L 49 203  " fill-rule="nonzero" fill="#169bd5" stroke="none" />
  </g>
</svg>