<?xml version="1.0" encoding="utf-8"?>
<svg version="1.1" xmlns:xlink="http://www.w3.org/1999/xlink" width="50px" height="50px" xmlns="http://www.w3.org/2000/svg">
  <g transform="matrix(1 0 0 1 -71 -499 )">
    <path d="M 96 499  C 110 499  121 510  121 524  C 121 538  110 549  96 549  C 82 549  71 538  71 524  C 71 510  82 499  96 499  Z " fill-rule="nonzero" fill="#ffffff" stroke="none" />
    <path d="M 96 499.5  C 109.72 499.5  120.5 510.28  120.5 524  C 120.5 537.72  109.72 548.5  96 548.5  C 82.28 548.5  71.5 537.72  71.5 524  C 71.5 510.28  82.28 499.5  96 499.5  Z " stroke-width="1" stroke="#797979" fill="none" />
  </g>
</svg>