<?xml version="1.0" encoding="utf-8"?>
<svg version="1.1" xmlns:xlink="http://www.w3.org/1999/xlink" width="12px" height="12px" viewBox="190 212  12 12" xmlns="http://www.w3.org/2000/svg">
  <path d="M 196 212  C 199.36 212  202 214.64  202 218  C 202 221.36  199.36 224  196 224  C 192.64 224  190 221.36  190 218  C 190 214.64  192.64 212  196 212  Z " fill-rule="nonzero" fill="#ffffff" stroke="none" />
  <path d="M 196 212.5  C 199.08 212.5  201.5 214.92  201.5 218  C 201.5 221.08  199.08 223.5  196 223.5  C 192.92 223.5  190.5 221.08  190.5 218  C 190.5 214.92  192.92 212.5  196 212.5  Z " stroke-width="1" stroke="#797979" fill="none" />
  <path d="M 196 221  C 194.32 221  193 219.68  193 218  C 193 216.32  194.32 215  196 215  C 197.68 215  199 216.32  199 218  C 199 219.68  197.68 221  196 221  " fill-rule="nonzero" fill="#797979" stroke="none" />
</svg>