<?xml version="1.0" encoding="utf-8"?>
<svg version="1.1" xmlns:xlink="http://www.w3.org/1999/xlink" width="60px" height="60px" xmlns="http://www.w3.org/2000/svg">
  <g transform="matrix(1 0 0 1 -71 -135 )">
    <path d="M 101 135  C 117.8 135  131 148.2  131 165  C 131 181.8  117.8 195  101 195  C 84.2 195  71 181.8  71 165  C 71 148.2  84.2 135  101 135  Z " fill-rule="nonzero" fill="#ffffff" stroke="none" />
    <path d="M 101 135.5  C 117.52 135.5  130.5 148.48  130.5 165  C 130.5 181.52  117.52 194.5  101 194.5  C 84.48 194.5  71.5 181.52  71.5 165  C 71.5 148.48  84.48 135.5  101 135.5  Z " stroke-width="1" stroke="#797979" fill="none" />
  </g>
</svg>