<?xml version="1.0" encoding="utf-8"?>
<svg version="1.1" xmlns:xlink="http://www.w3.org/1999/xlink" width="12px" height="12px" viewBox="130 190  12 12" xmlns="http://www.w3.org/2000/svg">
  <path d="M 136 190  C 139.36 190  142 192.64  142 196  C 142 199.36  139.36 202  136 202  C 132.64 202  130 199.36  130 196  C 130 192.64  132.64 190  136 190  Z " fill-rule="nonzero" fill="#f0f0f0" stroke="none" />
  <path d="M 136 190.5  C 139.08 190.5  141.5 192.92  141.5 196  C 141.5 199.08  139.08 201.5  136 201.5  C 132.92 201.5  130.5 199.08  130.5 196  C 130.5 192.92  132.92 190.5  136 190.5  Z " stroke-width="1" stroke="#797979" fill="none" />
  <path d="M 136 199  C 134.32 199  133 197.68  133 196  C 133 194.32  134.32 193  136 193  C 137.68 193  139 194.32  139 196  C 139 197.68  137.68 199  136 199  " fill-rule="nonzero" fill="#797979" stroke="none" />
</svg>