<?xml version="1.0" encoding="utf-8"?>
<svg version="1.1" xmlns:xlink="http://www.w3.org/1999/xlink" width="12px" height="12px" viewBox="190 190  12 12" xmlns="http://www.w3.org/2000/svg">
  <path d="M 196 190  C 199.36 190  202 192.64  202 196  C 202 199.36  199.36 202  196 202  C 192.64 202  190 199.36  190 196  C 190 192.64  192.64 190  196 190  Z " fill-rule="nonzero" fill="#ffffff" stroke="none" />
  <path d="M 196 190.5  C 199.08 190.5  201.5 192.92  201.5 196  C 201.5 199.08  199.08 201.5  196 201.5  C 192.92 201.5  190.5 199.08  190.5 196  C 190.5 192.92  192.92 190.5  196 190.5  Z " stroke-width="1" stroke="#797979" fill="none" />
  <path d="M 196 199  C 194.32 199  193 197.68  193 196  C 193 194.32  194.32 193  196 193  C 197.68 193  199 194.32  199 196  C 199 197.68  197.68 199  196 199  " fill-rule="nonzero" fill="#797979" stroke="none" />
</svg>