<?xml version="1.0" encoding="utf-8"?>
<svg version="1.1" xmlns:xlink="http://www.w3.org/1999/xlink" width="12px" height="12px" viewBox="131 153  12 12" xmlns="http://www.w3.org/2000/svg">
  <path d="M 137 153  C 140.36 153  143 155.64  143 159  C 143 162.36  140.36 165  137 165  C 133.64 165  131 162.36  131 159  C 131 155.64  133.64 153  137 153  Z " fill-rule="nonzero" fill="#ffffff" stroke="none" />
  <path d="M 137 153.5  C 140.08 153.5  142.5 155.92  142.5 159  C 142.5 162.08  140.08 164.5  137 164.5  C 133.92 164.5  131.5 162.08  131.5 159  C 131.5 155.92  133.92 153.5  137 153.5  Z " stroke-width="1" stroke="#797979" fill="none" />
  <path d="M 137 162  C 135.32 162  134 160.68  134 159  C 134 157.32  135.32 156  137 156  C 138.68 156  140 157.32  140 159  C 140 160.68  138.68 162  137 162  " fill-rule="nonzero" fill="#797979" stroke="none" />
</svg>