<?xml version="1.0" encoding="utf-8"?>
<svg version="1.1" xmlns:xlink="http://www.w3.org/1999/xlink" width="12px" height="12px" viewBox="191 153  12 12" xmlns="http://www.w3.org/2000/svg">
  <path d="M 197 153  C 200.36 153  203 155.64  203 159  C 203 162.36  200.36 165  197 165  C 193.64 165  191 162.36  191 159  C 191 155.64  193.64 153  197 153  Z " fill-rule="nonzero" fill="#ffffff" stroke="none" />
  <path d="M 197 153.5  C 200.08 153.5  202.5 155.92  202.5 159  C 202.5 162.08  200.08 164.5  197 164.5  C 193.92 164.5  191.5 162.08  191.5 159  C 191.5 155.92  193.92 153.5  197 153.5  Z " stroke-width="1" stroke="#797979" fill="none" />
  <path d="M 197 162  C 195.32 162  194 160.68  194 159  C 194 157.32  195.32 156  197 156  C 198.68 156  200 157.32  200 159  C 200 160.68  198.68 162  197 162  " fill-rule="nonzero" fill="#797979" stroke="none" />
</svg>