<?xml version="1.0" encoding="utf-8"?>
<svg version="1.1" xmlns:xlink="http://www.w3.org/1999/xlink" width="12px" height="12px" viewBox="251 153  12 12" xmlns="http://www.w3.org/2000/svg">
  <path d="M 257 153  C 260.36 153  263 155.64  263 159  C 263 162.36  260.36 165  257 165  C 253.64 165  251 162.36  251 159  C 251 155.64  253.64 153  257 153  Z " fill-rule="nonzero" fill="#ffffff" stroke="none" />
  <path d="M 257 153.5  C 260.08 153.5  262.5 155.92  262.5 159  C 262.5 162.08  260.08 164.5  257 164.5  C 253.92 164.5  251.5 162.08  251.5 159  C 251.5 155.92  253.92 153.5  257 153.5  Z " stroke-width="1" stroke="#797979" fill="none" />
  <path d="M 257 162  C 255.32 162  254 160.68  254 159  C 254 157.32  255.32 156  257 156  C 258.68 156  260 157.32  260 159  C 260 160.68  258.68 162  257 162  " fill-rule="nonzero" fill="#797979" stroke="none" />
</svg>